
    <svg xmlns="http://www.w3.org/2000/svg" width="454" height="48" viewBox="0 0 454 48" fill="none">
      <path fill-rule="evenodd" clip-rule="evenodd" d="M210.372 22H0V24.8818H210.372V22ZM242.072 24.8818H453.884V22H242.072V24.8818Z" fill="url(#paint0_linear_2491_1126)"/>
      <ellipse cx="226.774" cy="23.7747" rx="22.3338" ry="22.3338" fill="#fff"/>
      <g filter="url(#filter0_i_2491_1126)">
        <path d="M214.933 21.2981H216.689V20.1274H214.933V21.2981Z" fill="#fb8519"/>
        <path d="M237.176 22.3693V19.0562C236.833 19.1769 236.536 19.401 236.326 19.6978C236.116 19.9945 236.003 20.3491 236.003 20.7128C236.003 21.0764 236.116 21.431 236.326 21.7278C236.536 22.0245 236.833 22.2487 237.176 22.3693Z" fill="#fb8519"/>
        <path d="M233.97 20.3447C233.802 20.1843 233.589 20.0798 233.36 20.0454V20.0513C233.129 20.0299 232.896 20.0558 232.675 20.1274C232.35 20.275 232.086 20.5306 231.928 20.8507C231.77 21.1708 231.728 21.5357 231.808 21.8835C232.724 21.9187 233.633 21.7171 234.448 21.2981L234.296 20.941C234.252 20.7133 234.138 20.505 233.97 20.3447Z" fill="#fb8519"/>
        <path d="M230.238 14.5498C230.295 14.4567 230.376 14.3814 230.474 14.3323V14.3382C230.609 14.2613 230.731 14.1646 230.837 14.0513C230.408 13.4262 230.17 12.6901 230.152 11.9323H229.046C228.718 11.9323 228.404 12.0625 228.172 12.2941C227.941 12.5257 227.81 12.8399 227.81 13.1675V15.4094L227.898 15.4855C227.941 15.4807 227.984 15.4807 228.027 15.4855C228.829 15.8016 229.449 15.8543 229.783 15.6318C229.895 15.5358 229.986 15.4174 230.049 15.2844C230.113 15.1513 230.148 15.0065 230.152 14.8591C230.151 14.7501 230.181 14.6429 230.238 14.5498Z" fill="#fb8519"/>
        <path d="M224.759 8.8805C224.116 9.52305 223.742 10.3861 223.713 11.2943V11.3001C223.701 12.1386 223.99 12.9535 224.527 13.5976C225.063 14.2418 225.813 14.6726 226.64 14.8123V13.1675C226.641 12.5299 226.895 11.9188 227.346 11.468C227.797 11.0171 228.408 10.7632 229.046 10.7616H230.69C230.552 9.94284 230.128 9.19958 229.494 8.66378C228.859 8.12797 228.055 7.83427 227.225 7.83481H227.172C226.264 7.86408 225.401 8.23796 224.759 8.8805Z" fill="#fb8519"/>
        <path d="M228.825 18.0782C228.083 17.0269 227.379 16.0299 225.469 16.0299C221.522 16.0299 220.836 22.0288 220.787 22.4607L220.786 22.4688V23.0542H225.697C225.886 22.2442 226.27 21.4926 226.815 20.865L226.868 20.8298C226.597 20.516 226.354 20.1791 226.142 19.823C226.09 19.7573 226.053 19.6812 226.033 19.5999C226.013 19.5186 226.011 19.434 226.027 19.3518C226.042 19.2696 226.075 19.1917 226.124 19.1233C226.172 19.0549 226.234 18.9977 226.306 18.9554C226.379 18.9132 226.459 18.8869 226.542 18.8784C226.626 18.8699 226.71 18.8793 226.789 18.9061C226.868 18.9328 226.941 18.9762 227.002 19.0334C227.063 19.0906 227.111 19.1603 227.143 19.2376C227.513 19.8826 228.015 20.4429 228.614 20.8825C229.214 21.322 229.9 21.6311 230.626 21.7898C230.572 21.1623 230.722 20.5342 231.053 19.9986C230 19.7001 229.368 18.8572 228.829 18.0845L228.825 18.0782Z" fill="#fb8519"/>
        <path d="M220.786 24.2249V25.2844C220.787 25.5231 220.741 25.7597 220.651 25.981H223.713C224.101 25.9662 224.488 26.0318 224.85 26.1736C225.212 26.3155 225.541 26.5306 225.815 26.8053C226.09 27.0801 226.305 27.4087 226.447 27.7705C226.589 28.1323 226.655 28.5195 226.64 28.9078V30.0785H228.981V27.1517C228.981 24.26 226.171 24.2249 226.054 24.2249H220.786Z" fill="#fb8519"/>
        <path d="M218.521 35.6867C219.154 36.2223 219.957 36.5167 220.786 36.5175C221.616 36.5167 222.418 36.2223 223.051 35.6867C223.684 35.151 224.107 34.4085 224.246 33.5907H223.046C222.911 34.0867 222.617 34.5246 222.208 34.8368C221.8 35.149 221.3 35.3181 220.786 35.3181C220.272 35.3181 219.772 35.149 219.364 34.8368C218.956 34.5246 218.661 34.0867 218.527 33.5907H217.327C217.465 34.4085 217.888 35.151 218.521 35.6867Z" fill="#fb8519"/>
        <path d="M221.365 34.0106C221.542 33.9101 221.689 33.7654 221.793 33.5907H219.779C219.883 33.7654 220.03 33.9101 220.207 34.0106C220.383 34.1112 220.583 34.164 220.786 34.164C220.989 34.164 221.189 34.1112 221.365 34.0106Z" fill="#fb8519"/>
        <path d="M215.998 28.5624C215.371 29.7571 215.007 31.0727 214.933 32.42H226.054C225.674 31.9134 225.469 31.2972 225.469 30.6639V28.9078C225.482 28.6739 225.445 28.4399 225.361 28.2211C225.277 28.0023 225.148 27.8036 224.983 27.6379C224.817 27.4722 224.618 27.3433 224.4 27.2596C224.181 27.1758 223.947 27.1391 223.713 27.1517H218.404C217.912 27.1435 217.427 27.2708 217.003 27.5196C216.579 27.7684 216.231 28.1292 215.998 28.5624Z" fill="#fb8519"/>
        <path d="M227.385 32.0963C227.68 32.3059 228.034 32.419 228.396 32.42H230.152C230.348 32.4186 230.543 32.4049 230.737 32.379C230.742 32.2259 230.714 32.0736 230.656 31.9319C230.598 31.7901 230.512 31.6619 230.401 31.5556C230.291 31.4492 230.16 31.3671 230.016 31.3143C229.873 31.2616 229.719 31.2394 229.567 31.2493H226.745C226.866 31.5908 227.089 31.8867 227.385 32.0963Z" fill="#fb8519"/>
        <path d="M231.861 31.9868C231.967 31.9154 232.063 31.8308 232.148 31.7351C232.462 31.2855 232.586 30.7302 232.493 30.1898L230.843 23.0132C229.684 22.8542 228.59 22.3805 227.682 21.6435C227.67 21.6659 227.656 21.6874 227.641 21.7079C227.293 22.1287 227.036 22.617 226.886 23.142C227.832 23.2835 228.691 23.7729 229.295 24.5145C229.899 25.2562 230.205 26.1966 230.152 27.1517V30.1605C230.589 30.2539 230.987 30.479 231.293 30.8055C231.599 31.132 231.797 31.5443 231.861 31.9868Z" fill="#fb8519"/>
        <path d="M232.054 23.0542L233.664 29.9498C233.736 30.3797 233.721 30.8197 233.62 31.2438C233.52 31.668 233.336 32.0678 233.079 32.42H235.122L237.674 28.8376L234.911 22.3986C234.023 22.8387 233.045 23.0633 232.054 23.0542Z" fill="#fb8519"/>
        <path d="M237.925 32.42H238.932C239.088 32.42 239.236 32.4816 239.346 32.5914C239.456 32.7012 239.518 32.8501 239.518 33.0053C239.518 33.1606 239.456 33.3095 239.346 33.4193C239.236 33.529 239.088 33.5907 238.932 33.5907H237.925C238.054 33.8139 238.253 33.9883 238.491 34.0869C238.729 34.1856 238.993 34.2029 239.242 34.1362C239.491 34.0695 239.711 33.9225 239.868 33.718C240.025 33.5136 240.11 33.2631 240.11 33.0053C240.11 32.7476 240.025 32.4971 239.868 32.2927C239.711 32.0882 239.491 31.9412 239.242 31.8745C238.993 31.8078 238.729 31.8251 238.491 31.9237C238.253 32.0224 238.054 32.1968 237.925 32.42Z" fill="#fb8519"/>
        <path d="M236.761 32.1332L236.556 32.42H236.673C236.696 32.3226 236.725 32.2268 236.761 32.1332Z" fill="#fb8519"/>
        <path d="M236.667 35.6867C237.301 36.2223 238.103 36.5167 238.932 36.5175C239.864 36.5175 240.757 36.1475 241.416 35.4888C242.074 34.8302 242.444 33.9368 242.444 33.0053C242.444 32.0739 242.074 31.1805 241.416 30.5219C240.757 29.8632 239.864 29.4932 238.932 29.4932H238.634L237.387 31.2493C237.769 30.9111 238.251 30.7069 238.759 30.6678C239.268 30.6286 239.776 30.7566 240.205 31.0324C240.634 31.3081 240.961 31.7165 241.137 32.1954C241.313 32.6742 241.328 33.1974 241.179 33.6854C241.03 34.1733 240.726 34.5993 240.313 34.8985C239.9 35.1978 239.4 35.3539 238.89 35.3432C238.38 35.3325 237.887 35.1555 237.487 34.8392C237.087 34.5228 236.801 34.0845 236.673 33.5907H235.473C235.611 34.4085 236.034 35.151 236.667 35.6867Z" fill="#fb8519"/>
        <path fill-rule="evenodd" clip-rule="evenodd" d="M226.775 47.5493C239.905 47.5493 250.549 36.9051 250.549 23.7747C250.549 10.6443 239.905 0 226.775 0C213.644 0 203 10.6443 203 23.7747C203 36.9051 213.644 47.5493 226.775 47.5493ZM238.739 28.3225H238.932C239.834 28.3216 240.716 28.581 241.474 29.0694C242.231 29.5577 242.832 30.2544 243.203 31.0757C243.575 31.897 243.701 32.8081 243.568 33.6995C243.434 34.5909 243.046 35.4249 242.45 36.1012C241.854 36.7775 241.076 37.2675 240.208 37.5122C239.341 37.757 238.421 37.7462 237.559 37.4812C236.698 37.2161 235.931 36.708 235.351 36.0179C234.771 35.3278 234.403 34.485 234.29 33.5907H225.428C225.278 34.7157 224.725 35.748 223.871 36.4956C223.017 37.2433 221.921 37.6555 220.786 37.6555C219.651 37.6555 218.555 37.2433 217.701 36.4956C216.847 35.748 216.294 34.7157 216.144 33.5907H214.347C214.192 33.5907 214.043 33.529 213.933 33.4193C213.823 33.3095 213.762 33.1606 213.762 33.0053C213.749 31.2846 214.151 29.5861 214.933 28.0532C215.116 27.721 215.347 27.4173 215.617 27.1517H212.691C212.216 27.151 211.759 26.9687 211.414 26.6423C211.069 26.3158 210.862 25.8698 210.835 25.3956H208.494C208.338 25.3956 208.189 25.334 208.08 25.2242C207.97 25.1144 207.908 24.9655 207.908 24.8103C207.908 24.655 207.97 24.5061 208.08 24.3964C208.189 24.2866 208.338 24.2249 208.494 24.2249H210.835V23.0542H209.664C209.509 23.0542 209.36 22.9925 209.25 22.8828C209.141 22.773 209.079 22.6241 209.079 22.4688C209.079 22.3136 209.141 22.1647 209.25 22.0549C209.36 21.9452 209.509 21.8835 209.664 21.8835H212.591C212.746 21.8835 212.895 21.9452 213.005 22.0549C213.115 22.1647 213.176 22.3136 213.176 22.4688C213.176 22.6241 213.115 22.773 213.005 22.8828C212.895 22.9925 212.746 23.0542 212.591 23.0542H212.006V24.2249H213.176C213.332 24.2249 213.481 24.2866 213.59 24.3964C213.7 24.5061 213.762 24.655 213.762 24.8103C213.762 24.9655 213.7 25.1144 213.59 25.2242C213.481 25.334 213.332 25.3956 213.176 25.3956H212.006C212.03 25.5616 212.114 25.7128 212.243 25.8207C212.371 25.9286 212.535 25.9856 212.702 25.981H218.919C219.103 25.981 219.279 25.9084 219.409 25.7791C219.54 25.6497 219.614 25.474 219.615 25.2903V20.824C219.615 20.7325 219.597 20.6419 219.562 20.5574C219.527 20.4729 219.476 20.3961 219.411 20.3314C219.347 20.2667 219.27 20.2154 219.185 20.1804C219.101 20.1454 219.01 20.1274 218.919 20.1274H217.859V21.8893C217.859 22.0446 217.798 22.1935 217.688 22.3032C217.578 22.413 217.429 22.4747 217.274 22.4747H214.347C214.192 22.4747 214.043 22.413 213.933 22.3032C213.823 22.1935 213.762 22.0446 213.762 21.8893V20.1332H212.702C212.586 20.1324 212.471 20.1609 212.369 20.2162C212.267 20.2714 212.18 20.3516 212.117 20.4493C212.032 20.5798 211.899 20.6712 211.747 20.7036C211.595 20.736 211.437 20.7066 211.306 20.622C211.176 20.5374 211.084 20.4045 211.052 20.2524C211.02 20.1004 211.049 19.9417 211.134 19.8113C211.302 19.5487 211.535 19.3328 211.809 19.1835C212.083 19.0342 212.39 18.9562 212.702 18.9567H218.919C219.165 18.9565 219.408 19.005 219.635 19.0994C219.862 19.1939 220.069 19.3324 220.242 19.5069C220.851 17.6689 222.039 15.5499 224.298 14.9996C224.155 14.8866 224.018 14.7654 223.889 14.6367C223.452 14.1959 223.107 13.672 222.876 13.0959C222.645 12.5198 222.531 11.9032 222.542 11.2826C222.566 10.0652 223.06 8.90433 223.921 8.04334C224.782 7.18234 225.943 6.68805 227.161 6.66409C227.781 6.65556 228.397 6.77039 228.973 7.0019C229.548 7.23342 230.072 7.577 230.514 8.0127C230.955 8.4484 231.306 8.96752 231.545 9.53992C231.785 10.1123 231.908 10.7266 231.908 11.347C231.911 11.4983 231.856 11.6451 231.753 11.7564C231.651 11.8678 231.509 11.935 231.358 11.944C231.368 12.4178 231.499 12.8812 231.738 13.2904C231.862 13.4061 231.956 13.5501 232.012 13.7102C232.069 13.8703 232.085 14.0416 232.06 14.2094C232.006 14.4221 231.91 14.6219 231.777 14.7968C231.644 14.9717 231.478 15.1183 231.287 15.2279C231.244 15.5037 231.147 15.7682 231.002 16.0062C230.856 16.2443 230.665 16.4513 230.439 16.6152C230.141 16.8081 229.798 16.9191 229.444 16.9372L229.789 17.423C230.48 18.3772 230.919 18.9625 231.908 18.9625H232.417C232.78 18.8681 233.158 18.8443 233.529 18.8923C233.823 18.9308 234.105 19.0291 234.359 19.1811C234.612 19.3331 234.832 19.5357 235.005 19.7762C235.2 19.1986 235.57 18.6964 236.064 18.3396C236.559 17.9828 237.152 17.7893 237.762 17.786C237.917 17.786 238.066 17.8476 238.176 17.9574C238.285 18.0672 238.347 18.2161 238.347 18.3713V23.0542C238.347 23.2094 238.285 23.3583 238.176 23.4681C238.066 23.5779 237.917 23.6396 237.762 23.6396C237.37 23.6343 236.984 23.5507 236.626 23.3937L238.739 28.3225Z" fill="#fb8519"/>
      </g>
      <defs>
        <filter id="filter0_i_2491_1126" x="203" y="0" width="49.5498" height="49.5493" filterUnits="userSpaceOnUse" color-interpolation-filters="sRGB">
          <feFlood flood-opacity="0" result="BackgroundImageFix"/>
          <feBlend mode="normal" in="SourceGraphic" in2="BackgroundImageFix" result="shape"/>
          <feColorMatrix in="SourceAlpha" type="matrix" values="0 0 0 0 0 0 0 0 0 0 0 0 0 0 0 0 0 0 127 0" result="hardAlpha"/>
          <feOffset dx="2" dy="2"/>
          <feGaussianBlur stdDeviation="3"/>
          <feComposite in2="hardAlpha" operator="arithmetic" k2="-1" k3="1"/>
          <feColorMatrix type="matrix" values="0 0 0 0 0 0 0 0 0 0 0 0 0 0 0 0 0 0 0.25 0"/>
          <feBlend mode="normal" in2="shape" result="effect1_innerShadow_2491_1126"/>
        </filter>
        <linearGradient id="paint0_linear_2491_1126" x1="39.6248" y1="24.8837" x2="420.743" y2="24.8837" gradientUnits="userSpaceOnUse">
          <stop stop-color="#fb8519" stop-opacity="0"/>
          <stop offset="0.25" stop-color="#fb8519"/>
          <stop offset="0.74" stop-color="#fb8519"/>
          <stop offset="1" stop-color="#fb8519" stop-opacity="0"/>
        </linearGradient>
      </defs>
    </svg>